<svg width="339" height="287" viewBox="0 0 339 287" fill="none" xmlns="http://www.w3.org/2000/svg">
<g clip-path="url(#clip0_16_2)">
<path d="M310.635 115.233L310.855 114.604C310.663 113.819 310.525 113.462 310.672 112.648C311.53 113.305 311.008 113.541 311.908 114.224C316.905 128.462 317.585 144.674 314.755 159.444C314.37 161.455 313.635 166.788 312.823 168.41C309.06 182.275 301.99 195.821 293.358 207.233C272.088 236.609 234.82 257.57 199.195 263.38C161.824 269.475 124.595 262.927 93.4852 240.652C87.9752 236.706 77.753 227.776 73.5845 222.472C59.1685 220.639 42.2417 208.625 35.9692 195.513C43.2262 202.498 46.813 205.134 56.8547 208.473C58.7857 209.115 61.4702 209.359 63.3132 209.965C71.4912 210.728 83.325 210.664 90.9982 207.721C92.6285 209.467 100.104 215.406 100.528 216.076C103.704 218.117 106.827 220.437 110.018 222.417C168.946 258.992 259.402 238.693 297.522 180.919C309.482 162.791 315.71 136.932 310.635 115.233Z" fill="url(#paint0_linear_16_2)"/>
<path d="M310.635 115.233L310.855 114.604C310.662 113.819 310.525 113.462 310.672 112.648C311.53 113.305 311.007 113.541 311.907 114.224C316.905 128.462 317.585 144.674 314.755 159.444C314.37 161.455 313.635 166.788 312.822 168.41C309.06 182.275 301.99 195.821 293.357 207.233C293.13 203.997 284.688 205.193 282.822 206.02L282.142 205.585C260.56 226.405 233.143 240.147 203.547 244.979C172.318 250.302 141.84 245.36 114.345 229.253C109.984 226.698 103.695 223.047 100.006 219.626C96.8232 217.534 93.4545 213.549 90.271 212.177C87.7365 212.374 84.6147 212.989 82.1925 213.11C77.0607 213.367 70.5072 213.67 65.5265 212.362C64.955 212.212 63.8512 212.116 63.4427 211.778C64.9587 211.75 68.5455 213.43 71.2432 212.444C71.687 211.81 71.5742 212.106 71.6302 211.293C70.7867 210.532 64.436 211.172 63.3132 209.965C71.4912 210.728 83.325 210.664 90.9982 207.721C92.6285 209.467 100.104 215.406 100.528 216.076C103.704 218.117 106.827 220.437 110.018 222.417C168.946 258.992 259.402 238.693 297.522 180.919C309.482 162.791 315.71 136.932 310.635 115.233Z" fill="#EFEFF1"/>
<path d="M287.272 200.847C291.105 201.093 291.835 200.774 295.097 200.741C295.615 201.361 295.497 201.582 295.64 202.486C298.292 201.789 307.087 182.871 308.415 179.316C309.25 177.076 311.48 169.441 312.822 168.411C309.06 182.275 301.99 195.822 293.357 207.233C293.13 203.997 284.687 205.193 282.822 206.02L282.142 205.585C285.8 202.066 288.39 198.684 291.55 194.79C291.612 195.59 288.087 199.703 287.272 200.847Z" fill="#C9CBD1"/>
<path d="M63.3132 209.966C71.4912 210.728 83.325 210.664 90.9982 207.721C92.6285 209.467 100.104 215.406 100.528 216.076C99.1215 216.085 92.421 210.177 91.0437 208.804C90.9202 208.681 90.7992 208.556 90.6807 208.428C85.639 209.915 80.493 210.385 75.296 210.963C74.4815 211.054 73.49 211.287 72.8105 211.765L72.4505 212.519C74.4482 214.219 87.92 211.474 90.8785 212.06C92.3042 212.343 99.5282 218.548 100.006 219.626C96.8232 217.534 93.4545 213.549 90.271 212.177C87.7365 212.374 84.6147 212.989 82.1925 213.111C77.0607 213.368 70.5072 213.67 65.5265 212.363C64.955 212.213 63.8512 212.117 63.4427 211.778C64.9587 211.75 68.5455 213.43 71.2432 212.445C71.687 211.81 71.5742 212.106 71.6302 211.293C70.7867 210.532 64.436 211.173 63.3132 209.966Z" fill="#C9CBD1"/>
<path d="M254.452 39.6735C258.32 38.2812 262.192 36.9543 266.107 35.7005C281.962 30.6217 297.6 24.2697 313.42 19.1656C312.547 25.3697 310.312 34.3 309.03 40.6975C308.11 45.2862 306.747 53.2288 305.592 57.4323C304.442 64.83 302.397 72.349 301.077 79.5622C298.847 77.7395 293.295 73.3943 291.535 71.5695C290.965 71.2085 287.247 68.0045 286.392 67.3125C244.825 117.005 189.105 163.083 129.951 190.032C121.849 193.736 113.556 197.009 105.108 199.835C103.526 200.355 98.031 202.483 96.8137 201.587C153.772 176.736 198.373 139.087 237.575 91.4128C248.697 77.8867 257.962 64.6855 268.145 50.6007C264.935 48.54 257.947 42.3713 254.452 39.6735Z" fill="url(#paint1_linear_16_2)"/>
<path d="M305.593 57.4323C304.443 64.83 302.398 72.349 301.078 79.5622C298.848 77.7395 293.295 73.3943 291.535 71.5695C293.088 72.0508 294.865 73.8185 296.298 74.8207C297.378 74.762 300.708 67.4882 303.12 66.7097C304.085 64.6105 304.213 58.4288 305.593 57.4323Z" fill="#289B4A"/>
<path d="M59.4837 199.024C59.18 198.573 58.888 198.115 58.6075 197.649C46.823 178.119 45.8962 151.184 51.3545 129.46C60.4125 93.4068 84.1715 64.8345 115.577 45.848C114.976 47.5183 112.304 47.647 112.179 49.3328C112.882 49.276 113.695 49.6803 114.351 49.9703C117.696 51.447 121.789 51.7975 125.118 53.1675C125.511 53.7425 125.851 54.2338 126.285 54.7855C127.076 54.864 128.613 53.4085 130.25 53.1188C128.935 54.1388 125.824 56.0218 124.28 57.0565C120.831 59.3525 117.505 61.8285 114.316 64.4743C93.6822 81.5645 78.0277 104.851 72.215 131.246C67.625 152.09 69.8692 176.03 81.686 194.224C72.9235 197.273 69.6675 199.993 59.4837 199.024Z" fill="url(#paint2_linear_16_2)"/>
<path d="M280.805 91.2365C280.627 94.5345 280.697 98.4684 280.687 101.822C280.892 107.388 280.632 114.128 280.59 119.786L280.625 144.865L280.652 173.986C280.62 177.636 280.687 182.292 280.477 185.883C271.577 194.655 258.917 205.197 247.558 210.696C247.44 210.801 245.942 211.662 245.713 211.796C245.443 207.851 245.621 203.505 245.725 199.538C245.984 190.212 245.764 179.838 245.752 170.431L245.712 125.533C248.137 123.939 252.627 119.493 254.872 117.457C264.092 109.102 272.27 100.224 280.805 91.2365Z" fill="#289B4A"/>
<path d="M280.805 91.2365C280.628 94.5345 280.698 98.4684 280.688 101.822C279.963 102.968 280.698 109.076 280.275 109.499C279.83 107.785 280.62 99.3422 280.183 96.9467C279.535 96.9667 278.133 98.7649 277.7 99.3049C274.72 103.041 270.898 106.166 267.618 109.652C263.318 113.941 259.23 118.165 254.935 122.42C253.448 123.894 249.764 126.656 248.67 127.937C248.156 130.55 248.108 135.097 248.025 137.851C247.837 144.702 247.758 151.556 247.79 158.409C247.777 168.6 247.376 182.871 248.001 192.84C247.912 194.876 248.287 198.622 247.598 200.133L247.059 199.37C245.671 199.524 246.559 200.139 245.725 199.538C245.985 190.212 245.764 179.838 245.753 170.431L245.712 125.533C248.138 123.939 252.628 119.493 254.873 117.457C264.093 109.102 272.27 100.224 280.805 91.2365Z" fill="url(#paint3_linear_16_2)"/>
<path d="M233.14 137.069C232.806 142.568 232.945 148.588 233.007 154.132C233.247 175.43 232.824 196.796 233.089 218.081C219.721 222.369 213.023 225.146 198.444 226.799C198.305 207.066 198.325 187.332 198.506 167.6L198.552 163.656C206.148 159.426 215.861 150.468 223.211 145.524C224.148 144.37 231.827 138.058 233.14 137.069Z" fill="url(#paint4_linear_16_2)"/>
<path d="M198.552 163.656C206.148 159.426 215.861 150.468 223.211 145.524C222.63 147.322 210.129 155.574 209.486 157.056C209.978 157.801 210.582 157.449 210.614 157.645C210.709 158.229 210.275 158.358 210.867 158.883C214.804 155.942 218.999 152.182 222.934 149.377L223.136 149.609C219.705 153.506 202.086 164.828 200.97 166.958C200.723 167.43 200.535 168.071 200.036 168.25C200.266 167.661 200.007 166.959 199.868 166.342C200.265 166.338 200.346 166.582 200.628 166.62C200.75 166.637 203.231 164.167 203.497 163.888C204.005 163.355 204.282 162.829 204.361 162.086L204.08 161.45C202.808 161.283 200.727 162.81 199.681 163.61C199.467 163.774 199.256 163.943 199.047 164.116C199.31 165.241 199.093 166.881 199.007 168.06L198.827 168.249L198.506 167.6L198.552 163.656Z" fill="#289B4A"/>
<path d="M185.486 173.211C185.531 173.252 185.585 173.284 185.62 173.333C186.163 174.082 185.944 222.761 185.855 228.446C173.225 228.612 166.772 228.565 154.455 226.528C153.545 226.347 152.259 226.217 151.309 226.094C151.168 214.788 151.187 203.481 151.366 192.176C158.634 190.323 168.716 183.006 175.613 179.41C178.677 177.813 182.265 175.047 185.486 173.211Z" fill="url(#paint5_linear_16_2)"/>
<path d="M136.333 138.505C137.1 138.477 137.903 138.339 138.523 138.708C138.775 140.585 138.563 145.904 138.546 148.174L138.464 166.478C126.969 173.6 117.944 178.498 105.989 184.453C105.351 184.774 104.773 185.155 104.084 185.154C103.667 182.975 103.874 172.411 103.89 169.644L103.951 138.479C114.745 138.554 125.539 138.563 136.333 138.505Z" fill="url(#paint6_linear_16_2)"/>
<path d="M103.951 138.479C114.745 138.554 125.539 138.563 136.333 138.505L136.517 138.999C133.786 142.312 125.851 141.313 121.851 141.479C117.237 141.67 111.896 141.048 107.376 141.82C106.63 145.806 106.652 151.273 106.608 155.392C106.55 161.262 106.53 167.133 106.546 173.003C106.55 176.019 106.787 181.793 105.989 184.454C105.351 184.774 104.773 185.155 104.084 185.155C103.667 182.975 103.874 172.411 103.89 169.644L103.951 138.479Z" fill="#4AB2E7"/>
<path d="M183.69 108.966C184.507 108.869 185.165 108.676 185.84 109.066C186.113 110.344 185.999 113.981 186.03 115.433C186.125 119.877 186.002 124.45 186.225 128.885C183.094 131.682 180.088 134.645 176.926 137.386C168.643 144.557 160.068 151.383 151.223 157.847L151.265 131.256C151.271 127.912 151.102 120.585 151.45 117.394C151.435 114.596 151.389 111.798 151.313 109C162.105 109.125 172.898 109.114 183.69 108.966Z" fill="#006DB6"/>
<path d="M151.312 109C162.104 109.125 172.898 109.114 183.689 108.966C184.194 109.004 184.741 108.999 185.203 109.16L185.105 109.251C184.654 109.677 184.539 109.846 184.192 110.357C179.379 112.248 161.664 110.51 154.196 111.768C153.929 113.554 153.732 119.665 153.543 120.22C153.391 119.119 153.299 117.797 152.769 116.852L152.291 116.588C151.804 117.167 151.778 119.608 151.694 120.587L151.449 117.394C151.435 114.596 151.389 111.798 151.312 109Z" fill="url(#paint7_linear_16_2)"/>
<path d="M198.576 68.209C209.889 68.129 221.353 68.4295 232.636 68.2585C233.028 68.646 232.891 68.409 232.957 69.04C233.178 71.4353 233.02 76.2423 232.94 78.6623C229.714 83.1028 225.902 87.4665 222.315 91.6428C214.621 100.609 206.66 109.342 198.444 117.832C198.52 101.928 197.976 83.947 198.576 68.209Z" fill="url(#paint8_linear_16_2)"/>
<path d="M198.576 68.209C209.889 68.129 221.353 68.4295 232.636 68.2585C233.028 68.646 232.891 68.409 232.957 69.04C229.617 73.0225 208.441 69.5708 202.957 71.2648C200.53 72.0145 201.642 75.5288 199.112 76.4073C198.502 75.5388 198.852 70.1275 198.608 68.4185L198.576 68.209Z" fill="#82C876"/>
<path d="M115.577 45.848C117.821 43.8445 134.802 36.2888 138.259 35.0313C164.636 25.4378 195.256 23.0256 222.252 31.4748C225.87 32.607 229.886 33.7803 233.312 35.3533C233.665 36.0158 233.787 35.9433 234.481 36.371L234.139 36.2768C233.239 37.2128 232.356 36.147 230.95 36.4628C202.715 29.0143 174.955 32.1728 148.245 43.5745C144.732 45.0688 141.315 46.7815 138.016 48.7023C136.912 49.3383 130.829 52.9303 130.25 53.1188C128.613 53.4085 127.076 54.864 126.285 54.7855C125.851 54.2338 125.511 53.7425 125.118 53.1675C121.789 51.7975 115.5 53 114.351 49.9703C113.695 49.6803 109 49.9703 111 49C111.5 47.5 113.5 47.7022 115.577 45.848Z" fill="#EFEFF1"/>
<path d="M137.945 199.748L138.318 199.75C138.738 200.179 138.534 220.155 138.532 222.386C132.503 220.604 126.389 217.692 120.83 214.742L112.125 209.719C121.609 206.562 128.922 204.046 137.945 199.748Z" fill="#004A94"/>
<path d="M233.312 35.3533C236.223 36.0573 241.508 38.9455 243.957 40.8115C239.638 39.3105 235.303 37.8608 230.95 36.4628C232.356 36.147 233.239 37.2128 234.139 36.2768L234.481 36.371C233.787 35.9433 233.665 36.0158 233.312 35.3533Z" fill="#C9CBD1"/>
<path d="M307.115 103.858C308.82 106.248 311.348 111.389 311.908 114.224C311.008 113.541 311.53 113.305 310.672 112.648C310.525 113.462 310.663 113.819 310.855 114.604L310.635 115.233C309.835 111.789 308.2 107.356 307.115 103.858Z" fill="#C9CBD1"/>
</g>
<defs>
<linearGradient id="paint0_linear_16_2" x1="150.243" y1="263.68" x2="170.761" y2="176.663" gradientUnits="userSpaceOnUse">
<stop stop-color="#8A92A0"/>
<stop offset="1" stop-color="#D0D1D5"/>
</linearGradient>
<linearGradient id="paint1_linear_16_2" x1="240.211" y1="141.154" x2="186.78" y2="95.6912" gradientUnits="userSpaceOnUse">
<stop stop-color="#31A949"/>
<stop offset="1" stop-color="#ACC961"/>
</linearGradient>
<linearGradient id="paint2_linear_16_2" x1="86.1107" y1="198.85" x2="88.1262" y2="48.4335" gradientUnits="userSpaceOnUse">
<stop stop-color="#ADB2BD"/>
<stop offset="1" stop-color="#F2F1F1"/>
</linearGradient>
<linearGradient id="paint3_linear_16_2" x1="269.343" y1="149.021" x2="241.287" y2="137" gradientUnits="userSpaceOnUse">
<stop stop-color="#50AF55"/>
<stop offset="1" stop-color="#8CCA74"/>
</linearGradient>
<linearGradient id="paint4_linear_16_2" x1="240.767" y1="209.878" x2="199.293" y2="163.685" gradientUnits="userSpaceOnUse">
<stop stop-color="#006448"/>
<stop offset="1" stop-color="#189A5D"/>
</linearGradient>
<linearGradient id="paint5_linear_16_2" x1="179.852" y1="229.709" x2="162.006" y2="182.809" gradientUnits="userSpaceOnUse">
<stop stop-color="#003E84"/>
<stop offset="1" stop-color="#0267A9"/>
</linearGradient>
<linearGradient id="paint6_linear_16_2" x1="136.336" y1="168.712" x2="103.011" y2="151.341" gradientUnits="userSpaceOnUse">
<stop stop-color="#006EBC"/>
<stop offset="1" stop-color="#18A1DD"/>
</linearGradient>
<linearGradient id="paint7_linear_16_2" x1="167.431" y1="115.601" x2="166.904" y2="108.408" gradientUnits="userSpaceOnUse">
<stop stop-color="#1197D4"/>
<stop offset="1" stop-color="#5EBAEF"/>
</linearGradient>
<linearGradient id="paint8_linear_16_2" x1="198.496" y1="76.0718" x2="218.843" y2="96.0345" gradientUnits="userSpaceOnUse">
<stop stop-color="#46AE5C"/>
<stop offset="1" stop-color="#009163"/>
</linearGradient>
<clipPath id="clip0_16_2">
<rect width="339" height="287" fill="white"/>
</clipPath>
</defs>
</svg>
